<?xml version="1.0" standalone="no"?>
<!DOCTYPE svg PUBLIC "-//W3C//DTD SVG 20010904//EN"
 "http://www.w3.org/TR/2001/REC-SVG-20010904/DTD/svg10.dtd">
<svg version="1.0" xmlns="http://www.w3.org/2000/svg"
 width="210.000000pt" height="196.000000pt" viewBox="0 0 210.000000 196.000000"
 preserveAspectRatio="xMidYMid meet">

<g transform="translate(0.000000,196.000000) scale(0.100000,-0.100000)"
fill="#000000" stroke="none">
<path d="M246 1749 c-25 -30 -26 -35 -26 -164 l0 -133 31 -26 c30 -25 35 -26
164 -26 l133 0 26 31 c25 30 26 35 26 164 l0 133 -31 26 c-30 25 -35 26 -164
26 l-133 0 -26 -31z m283 -45 c18 -23 21 -41 21 -120 0 -88 -1 -94 -26 -113
-23 -18 -41 -21 -120 -21 -88 0 -94 1 -113 26 -18 23 -21 41 -21 120 0 88 1
94 26 113 23 18 41 21 120 21 88 0 94 -1 113 -26z"/>
<path d="M342 1658 c-7 -7 -12 -37 -12 -68 0 -31 5 -61 12 -68 7 -7 37 -12 68
-12 31 0 61 5 68 12 7 7 12 37 12 68 0 31 -5 61 -12 68 -7 7 -37 12 -68 12
-31 0 -61 -5 -68 -12z"/>
<path d="M723 1764 c-9 -23 19 -37 37 -18 13 13 13 16 0 24 -21 14 -30 12 -37
-6z"/>
<path d="M943 1764 c-8 -22 18 -37 36 -20 7 8 10 19 7 25 -10 16 -36 13 -43
-5z"/>
<path d="M1113 1764 c-7 -18 17 -38 31 -24 11 11 1 40 -14 40 -6 0 -13 -7 -17
-16z"/>
<path d="M1277 1766 c-8 -20 20 -43 35 -28 14 14 3 42 -16 42 -7 0 -16 -6 -19
-14z"/>
<path d="M1333 1764 c-8 -22 18 -37 36 -20 7 8 10 19 7 25 -10 16 -36 13 -43
-5z"/>
<path d="M1466 1749 c-25 -30 -26 -35 -26 -164 l0 -133 31 -26 c30 -25 35 -26
164 -26 l133 0 26 31 c25 30 26 35 26 164 l0 133 -31 26 c-30 25 -35 26 -164
26 l-133 0 -26 -31z m283 -45 c18 -23 21 -41 21 -120 0 -88 -1 -94 -26 -113
-23 -18 -41 -21 -120 -21 -88 0 -94 1 -113 26 -18 23 -21 41 -21 120 0 88 1
94 26 113 23 18 41 21 120 21 88 0 94 -1 113 -26z"/>
<path d="M1562 1658 c-7 -7 -12 -37 -12 -68 0 -31 5 -61 12 -68 7 -7 37 -12
68 -12 31 0 61 5 68 12 7 7 12 37 12 68 0 31 -5 61 -12 68 -7 7 -37 12 -68 12
-31 0 -61 -5 -68 -12z"/>
<path d="M664 1709 c-9 -15 12 -33 30 -26 9 4 16 13 16 22 0 17 -35 21 -46 4z"/>
<path d="M725 1710 c-8 -13 3 -30 20 -30 14 0 27 24 18 34 -10 9 -31 7 -38 -4z"/>
<path d="M835 1710 c-8 -13 3 -30 20 -30 14 0 27 24 18 34 -10 9 -31 7 -38 -4z"/>
<path d="M890 1699 c0 -25 33 -22 38 4 2 12 -3 17 -17 17 -15 0 -21 -6 -21
-21z"/>
<path d="M1055 1710 c-4 -7 -3 -16 3 -22 14 -14 45 -2 40 15 -6 16 -34 21 -43
7z"/>
<path d="M1335 1710 c-8 -13 3 -30 20 -30 14 0 27 24 18 34 -10 9 -31 7 -38
-4z"/>
<path d="M723 1654 c-8 -20 17 -36 34 -22 9 7 17 7 28 -2 16 -14 35 -5 35 16
0 20 -30 30 -41 13 -6 -11 -11 -11 -21 -1 -16 16 -27 15 -35 -4z"/>
<path d="M833 1654 c-9 -23 19 -37 37 -18 13 13 13 16 0 24 -21 14 -30 12 -37
-6z"/>
<path d="M1003 1654 c-8 -21 13 -42 28 -27 13 13 5 43 -11 43 -6 0 -13 -7 -17
-16z"/>
<path d="M1056 1653 c-6 -15 8 -32 25 -33 10 0 20 31 13 41 -9 15 -31 10 -38
-8z"/>
<path d="M1113 1654 c-8 -21 13 -42 28 -27 13 13 5 43 -11 43 -6 0 -13 -7 -17
-16z"/>
<path d="M1223 1654 c-8 -21 13 -42 28 -27 13 13 5 43 -11 43 -6 0 -13 -7 -17
-16z"/>
<path d="M1333 1654 c-8 -20 17 -36 34 -22 10 8 10 14 2 24 -15 18 -28 18 -36
-2z"/>
<path d="M665 1600 c-4 -7 -3 -16 3 -22 14 -14 45 -2 40 15 -6 16 -34 21 -43
7z"/>
<path d="M725 1600 c-8 -13 3 -30 20 -30 14 0 27 24 18 34 -10 9 -31 7 -38 -4z"/>
<path d="M835 1600 c-4 -7 -3 -16 3 -22 14 -14 45 -2 40 15 -6 16 -34 21 -43
7z"/>
<path d="M945 1600 c-4 -7 -3 -16 3 -22 14 -14 45 -2 40 15 -6 16 -34 21 -43
7z"/>
<path d="M1000 1590 c0 -13 7 -20 20 -20 13 0 20 7 20 20 0 13 -7 20 -20 20
-13 0 -20 -7 -20 -20z"/>
<path d="M1055 1600 c-4 -7 -3 -16 3 -22 14 -14 45 -2 40 15 -6 16 -34 21 -43
7z"/>
<path d="M1165 1600 c-4 -7 -3 -16 3 -22 14 -14 45 -2 40 15 -6 16 -34 21 -43
7z"/>
<path d="M1225 1600 c-8 -13 3 -30 20 -30 14 0 27 24 18 34 -10 9 -31 7 -38
-4z"/>
<path d="M783 1544 c-8 -21 13 -42 28 -27 13 13 5 43 -11 43 -6 0 -13 -7 -17
-16z"/>
<path d="M893 1544 c-8 -21 13 -42 28 -27 13 13 5 43 -11 43 -6 0 -13 -7 -17
-16z"/>
<path d="M1003 1544 c-8 -21 13 -42 28 -27 13 13 5 43 -11 43 -6 0 -13 -7 -17
-16z"/>
<path d="M1113 1544 c-8 -21 13 -42 28 -27 13 13 5 43 -11 43 -6 0 -13 -7 -17
-16z"/>
<path d="M1166 1543 c-6 -15 8 -32 27 -33 15 0 20 32 6 41 -20 13 -26 11 -33
-8z"/>
<path d="M1223 1544 c-8 -21 13 -42 28 -27 13 13 5 43 -11 43 -6 0 -13 -7 -17
-16z"/>
<path d="M1281 1546 c-9 -10 -8 -16 4 -26 19 -16 41 1 32 24 -8 20 -21 20 -36
2z"/>
<path d="M1334 1545 c-7 -18 3 -35 21 -35 18 0 26 25 12 39 -15 15 -27 14 -33
-4z"/>
<path d="M666 1485 c-3 -9 1 -18 10 -22 19 -7 39 11 30 26 -10 16 -33 13 -40
-4z"/>
<path d="M776 1485 c-3 -9 1 -18 10 -22 19 -7 39 11 30 26 -10 16 -33 13 -40
-4z"/>
<path d="M945 1490 c-4 -7 -3 -16 3 -22 14 -14 45 -2 40 15 -6 16 -34 21 -43
7z"/>
<path d="M1055 1490 c-4 -7 -3 -16 3 -22 14 -14 45 -2 40 15 -6 16 -34 21 -43
7z"/>
<path d="M1110 1480 c0 -13 7 -20 20 -20 13 0 20 7 20 20 0 13 -7 20 -20 20
-13 0 -20 -7 -20 -20z"/>
<path d="M1165 1490 c-4 -7 -3 -16 3 -22 14 -14 45 -2 40 15 -6 16 -34 21 -43
7z"/>
<path d="M669 1434 c-10 -13 -10 -17 2 -25 18 -11 33 -6 37 13 4 22 -24 30
-39 12z"/>
<path d="M783 1434 c-7 -19 11 -39 26 -30 16 10 13 33 -4 40 -9 3 -18 -1 -22
-10z"/>
<path d="M893 1434 c-8 -21 13 -42 28 -27 13 13 5 43 -11 43 -6 0 -13 -7 -17
-16z"/>
<path d="M1003 1434 c-8 -21 13 -42 28 -27 13 13 5 43 -11 43 -6 0 -13 -7 -17
-16z"/>
<path d="M1113 1434 c-8 -21 13 -42 28 -27 13 13 5 43 -11 43 -6 0 -13 -7 -17
-16z"/>
<path d="M1224 1435 c-7 -18 3 -35 21 -35 18 0 26 25 12 39 -15 15 -27 14 -33
-4z"/>
<path d="M1334 1435 c-7 -18 3 -35 21 -35 18 0 26 25 12 39 -15 15 -27 14 -33
-4z"/>
<path d="M890 1371 c0 -15 6 -21 21 -21 14 0 19 5 17 17 -5 26 -38 29 -38 4z"/>
<path d="M1055 1380 c-4 -7 -3 -16 3 -22 14 -14 45 -2 40 15 -6 16 -34 21 -43
7z"/>
<path d="M1113 1374 c-6 -16 15 -37 29 -28 4 3 8 14 8 25 0 23 -28 26 -37 3z"/>
<path d="M1276 1375 c-3 -9 1 -18 10 -22 19 -7 39 11 30 26 -10 16 -33 13 -40
-4z"/>
<path d="M1333 1374 c-8 -22 18 -37 36 -20 7 8 10 19 7 25 -10 16 -36 13 -43
-5z"/>
<path d="M224 1325 c-7 -18 3 -35 21 -35 18 0 26 25 12 39 -15 15 -27 14 -33
-4z"/>
<path d="M283 1324 c-7 -19 11 -39 26 -30 16 10 13 33 -4 40 -9 3 -18 -1 -22
-10z"/>
<path d="M340 1326 c-13 -17 -6 -36 15 -36 19 0 26 27 11 39 -10 8 -17 7 -26
-3z"/>
<path d="M393 1324 c-7 -19 11 -39 26 -30 16 10 13 33 -4 40 -9 3 -18 -1 -22
-10z"/>
<path d="M449 1324 c-9 -11 -9 -18 -1 -26 14 -14 42 -3 42 16 0 20 -27 27 -41
10z"/>
<path d="M559 1324 c-9 -11 -9 -18 -1 -26 14 -14 42 -3 42 16 0 20 -27 27 -41
10z"/>
<path d="M614 1325 c-3 -8 -3 -19 1 -25 8 -14 35 -13 35 1 0 8 5 8 15 -1 18
-15 45 -6 45 14 0 19 -25 27 -39 13 -8 -8 -14 -8 -23 1 -16 16 -27 15 -34 -3z"/>
<path d="M724 1325 c-7 -18 3 -35 21 -35 18 0 26 25 12 39 -15 15 -27 14 -33
-4z"/>
<path d="M783 1324 c-7 -19 11 -39 26 -30 16 10 13 33 -4 40 -9 3 -18 -1 -22
-10z"/>
<path d="M893 1324 c-7 -19 11 -39 26 -30 16 10 13 33 -4 40 -9 3 -18 -1 -22
-10z"/>
<path d="M950 1326 c-13 -17 -6 -36 15 -36 19 0 26 27 11 39 -10 8 -17 7 -26
-3z"/>
<path d="M1003 1324 c-7 -19 11 -39 26 -30 16 10 13 33 -4 40 -9 3 -18 -1 -22
-10z"/>
<path d="M1059 1324 c-9 -11 -9 -18 -1 -26 14 -14 42 -3 42 16 0 20 -27 27
-41 10z"/>
<path d="M1169 1324 c-9 -11 -9 -18 -1 -26 14 -14 42 -3 42 16 0 20 -27 27
-41 10z"/>
<path d="M1279 1324 c-9 -11 -9 -18 -1 -26 14 -14 42 -3 42 16 0 20 -27 27
-41 10z"/>
<path d="M1393 1324 c-7 -19 11 -39 26 -30 16 10 13 33 -4 40 -9 3 -18 -1 -22
-10z"/>
<path d="M1503 1324 c-7 -19 11 -39 26 -30 16 10 13 33 -4 40 -9 3 -18 -1 -22
-10z"/>
<path d="M1613 1324 c-8 -21 13 -42 28 -27 13 13 5 43 -11 43 -6 0 -13 -7 -17
-16z"/>
<path d="M1724 1326 c-7 -19 3 -36 22 -36 10 0 14 8 12 22 -4 26 -26 36 -34
14z"/>
<path d="M280 1261 c0 -21 26 -36 36 -20 9 15 -3 39 -21 39 -8 0 -15 -9 -15
-19z"/>
<path d="M444 1269 c-3 -6 0 -17 8 -25 13 -13 16 -13 27 0 7 8 10 20 6 26 -8
13 -32 13 -41 -1z"/>
<path d="M503 1264 c-7 -18 17 -38 31 -24 11 11 1 40 -14 40 -6 0 -13 -7 -17
-16z"/>
<path d="M667 1266 c-8 -20 20 -43 35 -28 14 14 3 42 -16 42 -7 0 -16 -6 -19
-14z"/>
<path d="M723 1264 c-8 -22 18 -37 36 -20 7 8 10 19 7 25 -10 16 -36 13 -43
-5z"/>
<path d="M1113 1264 c-7 -18 17 -38 31 -24 11 11 1 40 -14 40 -6 0 -13 -7 -17
-16z"/>
<path d="M1223 1264 c-6 -16 15 -37 29 -28 4 3 8 14 8 25 0 23 -28 26 -37 3z"/>
<path d="M1277 1266 c-8 -20 20 -43 35 -28 14 14 3 42 -16 42 -7 0 -16 -6 -19
-14z"/>
<path d="M1333 1264 c-8 -22 18 -37 36 -20 7 8 10 19 7 25 -10 16 -36 13 -43
-5z"/>
<path d="M1443 1264 c-8 -22 18 -37 36 -20 7 8 10 19 7 25 -10 16 -36 13 -43
-5z"/>
<path d="M1500 1261 c0 -21 26 -36 36 -20 9 15 -3 39 -21 39 -8 0 -15 -9 -15
-19z"/>
<path d="M1553 1264 c-8 -22 18 -37 36 -20 7 8 10 19 7 25 -10 16 -36 13 -43
-5z"/>
<path d="M1777 1266 c-3 -8 1 -20 9 -27 13 -10 17 -10 25 2 5 8 7 19 6 24 -6
16 -34 17 -40 1z"/>
<path d="M286 1223 c-3 -4 -6 -15 -6 -25 0 -24 33 -21 38 3 3 17 -21 33 -32
22z"/>
<path d="M393 1214 c-7 -19 11 -39 26 -30 16 10 13 33 -4 40 -9 3 -18 -1 -22
-10z"/>
<path d="M504 1215 c-3 -8 -3 -19 1 -25 11 -17 35 -11 35 9 0 23 -29 36 -36
16z"/>
<path d="M559 1214 c-9 -11 -9 -18 -1 -26 14 -14 42 -3 42 16 0 20 -27 27 -41
10z"/>
<path d="M896 1223 c-3 -4 -6 -15 -6 -25 0 -24 33 -21 38 3 3 17 -21 33 -32
22z"/>
<path d="M1004 1215 c-3 -8 -3 -19 1 -25 11 -17 35 -11 35 9 0 23 -29 36 -36
16z"/>
<path d="M1061 1216 c-14 -17 -7 -36 14 -36 22 0 29 20 13 36 -13 13 -16 13
-27 0z"/>
<path d="M445 1210 c-4 -7 -3 -16 3 -22 14 -14 45 -2 40 15 -6 16 -34 21 -43
7z"/>
<path d="M720 1205 c0 -21 30 -31 40 -14 11 17 3 29 -21 29 -10 0 -19 -7 -19
-15z"/>
<path d="M835 1210 c-8 -13 3 -30 20 -30 14 0 27 24 18 34 -10 9 -31 7 -38 -4z"/>
<path d="M333 1154 c-8 -22 18 -37 36 -20 7 8 10 19 7 25 -10 16 -36 13 -43
-5z"/>
<path d="M723 1154 c-8 -20 17 -36 34 -22 9 7 17 7 28 -2 16 -14 35 -5 35 16
0 20 -30 30 -41 13 -6 -11 -11 -11 -21 -1 -16 16 -27 15 -35 -4z"/>
<path d="M833 1154 c-8 -22 18 -37 36 -20 7 8 10 19 7 25 -10 16 -36 13 -43
-5z"/>
<path d="M1003 1154 c-8 -21 13 -42 28 -27 13 13 5 43 -11 43 -6 0 -13 -7 -17
-16z"/>
<path d="M1223 1154 c-7 -18 17 -38 31 -24 11 11 1 40 -14 40 -6 0 -13 -7 -17
-16z"/>
<path d="M1277 1156 c-8 -20 20 -43 35 -28 14 14 3 42 -16 42 -7 0 -16 -6 -19
-14z"/>
<path d="M1333 1154 c-9 -23 19 -37 37 -18 13 13 13 16 0 24 -21 14 -30 12
-37 -6z"/>
<path d="M1392 1148 c2 -12 10 -23 18 -23 22 0 19 39 -3 43 -15 3 -18 -1 -15
-20z"/>
<path d="M1503 1154 c-8 -21 13 -42 28 -27 13 13 5 43 -11 43 -6 0 -13 -7 -17
-16z"/>
<path d="M1613 1154 c-8 -21 13 -42 28 -27 13 13 5 43 -11 43 -6 0 -13 -7 -17
-16z"/>
<path d="M1723 1154 c-7 -18 17 -38 31 -24 11 11 1 40 -14 40 -6 0 -13 -7 -17
-16z"/>
<path d="M280 1089 c0 -14 5 -19 17 -17 26 5 29 38 4 38 -15 0 -21 -6 -21 -21z"/>
<path d="M335 1100 c-4 -7 -3 -16 3 -22 14 -14 45 -2 40 15 -6 16 -34 21 -43
7z"/>
<path d="M390 1090 c0 -13 7 -20 20 -20 13 0 20 7 20 20 0 13 -7 20 -20 20
-13 0 -20 -7 -20 -20z"/>
<path d="M500 1090 c0 -13 7 -20 20 -20 13 0 20 7 20 20 0 13 -7 20 -20 20
-13 0 -20 -7 -20 -20z"/>
<path d="M555 1100 c-4 -7 -3 -16 3 -22 14 -14 45 -2 40 15 -6 16 -34 21 -43
7z"/>
<path d="M725 1100 c-8 -13 3 -30 20 -30 14 0 27 24 18 34 -10 9 -31 7 -38 -4z"/>
<path d="M835 1100 c-4 -7 -3 -16 3 -22 14 -14 45 -2 40 15 -6 16 -34 21 -43
7z"/>
<path d="M945 1100 c-4 -7 -3 -16 3 -22 14 -14 45 -2 40 15 -6 16 -34 21 -43
7z"/>
<path d="M1000 1090 c0 -13 7 -20 20 -20 13 0 20 7 20 20 0 13 -7 20 -20 20
-13 0 -20 -7 -20 -20z"/>
<path d="M1055 1100 c-4 -7 -3 -16 3 -22 14 -14 45 -2 40 15 -6 16 -34 21 -43
7z"/>
<path d="M1112 1093 c5 -26 38 -29 38 -4 0 15 -6 21 -21 21 -14 0 -19 -5 -17
-17z"/>
<path d="M1164 1099 c-9 -15 12 -33 30 -26 9 4 16 13 16 22 0 17 -35 21 -46 4z"/>
<path d="M1276 1095 c-6 -17 17 -31 34 -20 5 3 10 13 10 21 0 19 -36 18 -44
-1z"/>
<path d="M1610 1090 c0 -13 7 -20 20 -20 13 0 20 7 20 20 0 13 -7 20 -20 20
-13 0 -20 -7 -20 -20z"/>
<path d="M1665 1100 c-4 -7 -3 -16 3 -22 14 -14 45 -2 40 15 -6 16 -34 21 -43
7z"/>
<path d="M333 1044 c-5 -14 11 -33 28 -34 14 0 19 34 7 42 -19 12 -28 10 -35
-8z"/>
<path d="M393 1044 c-8 -21 13 -42 28 -27 13 13 5 43 -11 43 -6 0 -13 -7 -17
-16z"/>
<path d="M503 1044 c-8 -21 13 -42 28 -27 13 13 5 43 -11 43 -6 0 -13 -7 -17
-16z"/>
<path d="M667 1046 c-8 -20 20 -43 35 -28 14 14 3 42 -16 42 -7 0 -16 -6 -19
-14z"/>
<path d="M723 1044 c-9 -23 13 -40 32 -24 12 10 18 10 30 0 16 -13 35 -6 35
15 0 21 -19 28 -36 14 -11 -9 -18 -9 -26 -1 -16 16 -28 15 -35 -4z"/>
<path d="M893 1044 c-8 -21 13 -42 28 -27 13 13 5 43 -11 43 -6 0 -13 -7 -17
-16z"/>
<path d="M1113 1044 c-8 -21 13 -42 28 -27 13 13 5 43 -11 43 -6 0 -13 -7 -17
-16z"/>
<path d="M1167 1046 c-8 -20 20 -43 35 -28 14 14 3 42 -16 42 -7 0 -16 -6 -19
-14z"/>
<path d="M1223 1044 c-8 -21 13 -42 28 -27 13 13 5 43 -11 43 -6 0 -13 -7 -17
-16z"/>
<path d="M1277 1046 c-8 -20 20 -43 35 -28 14 14 3 42 -16 42 -7 0 -16 -6 -19
-14z"/>
<path d="M1393 1044 c-8 -21 13 -42 28 -27 13 13 5 43 -11 43 -6 0 -13 -7 -17
-16z"/>
<path d="M1443 1044 c-5 -14 11 -33 28 -34 14 0 19 34 7 42 -19 12 -28 10 -35
-8z"/>
<path d="M1556 1043 c-6 -15 8 -32 25 -33 10 0 20 31 13 41 -9 15 -31 10 -38
-8z"/>
<path d="M1777 1046 c-8 -20 20 -43 35 -28 14 14 3 42 -16 42 -7 0 -16 -6 -19
-14z"/>
<path d="M280 980 c0 -13 7 -20 20 -20 13 0 20 7 20 20 0 13 -7 20 -20 20 -13
0 -20 -7 -20 -20z"/>
<path d="M390 980 c0 -13 7 -20 20 -20 13 0 20 7 20 20 0 13 -7 20 -20 20 -13
0 -20 -7 -20 -20z"/>
<path d="M445 990 c-4 -7 -3 -16 3 -22 14 -14 45 -2 40 15 -6 16 -34 21 -43 7z"/>
<path d="M555 990 c-4 -7 -3 -16 3 -22 14 -14 45 -2 40 15 -6 16 -34 21 -43 7z"/>
<path d="M725 990 c-8 -13 3 -30 20 -30 14 0 27 24 18 34 -10 9 -31 7 -38 -4z"/>
<path d="M945 990 c-4 -7 -3 -16 3 -22 14 -14 45 -2 40 15 -6 16 -34 21 -43 7z"/>
<path d="M1055 990 c-4 -7 -3 -16 3 -22 14 -14 45 -2 40 15 -6 16 -34 21 -43
7z"/>
<path d="M1110 980 c0 -13 7 -20 20 -20 13 0 20 7 20 20 0 13 -7 20 -20 20
-13 0 -20 -7 -20 -20z"/>
<path d="M1165 990 c-4 -7 -3 -16 3 -22 14 -14 45 -2 40 15 -6 16 -34 21 -43
7z"/>
<path d="M1335 990 c-8 -13 3 -30 20 -30 14 0 27 24 18 34 -10 9 -31 7 -38 -4z"/>
<path d="M1386 985 c-6 -17 17 -31 34 -20 5 3 10 13 10 21 0 19 -36 18 -44 -1z"/>
<path d="M1445 990 c-4 -7 -3 -16 3 -22 14 -14 45 -2 40 15 -6 16 -34 21 -43
7z"/>
<path d="M1500 980 c0 -13 7 -20 20 -20 13 0 20 7 20 20 0 13 -7 20 -20 20
-13 0 -20 -7 -20 -20z"/>
<path d="M1610 980 c0 -13 7 -20 20 -20 13 0 20 7 20 20 0 13 -7 20 -20 20
-13 0 -20 -7 -20 -20z"/>
<path d="M1665 990 c-4 -7 -3 -16 3 -22 14 -14 45 -2 40 15 -6 16 -34 21 -43
7z"/>
<path d="M224 935 c-7 -18 3 -35 21 -35 18 0 26 25 12 39 -15 15 -27 14 -33
-4z"/>
<path d="M283 934 c-8 -21 13 -42 28 -27 13 13 5 43 -11 43 -6 0 -13 -7 -17
-16z"/>
<path d="M446 934 c-7 -19 1 -34 19 -34 18 0 28 32 13 42 -19 11 -25 10 -32
-8z"/>
<path d="M783 934 c-8 -21 13 -42 28 -27 13 13 5 43 -11 43 -6 0 -13 -7 -17
-16z"/>
<path d="M893 934 c-8 -21 13 -42 28 -27 13 13 5 43 -11 43 -6 0 -13 -7 -17
-16z"/>
<path d="M1003 934 c-8 -21 13 -42 28 -27 13 13 5 43 -11 43 -6 0 -13 -7 -17
-16z"/>
<path d="M1113 934 c-8 -21 13 -42 28 -27 13 13 5 43 -11 43 -6 0 -13 -7 -17
-16z"/>
<path d="M1281 936 c-9 -10 -8 -16 4 -26 19 -16 41 1 32 24 -8 20 -21 20 -36
2z"/>
<path d="M1393 934 c-8 -21 13 -42 28 -27 13 13 5 43 -11 43 -6 0 -13 -7 -17
-16z"/>
<path d="M1503 934 c-8 -21 13 -42 28 -27 13 13 5 43 -11 43 -6 0 -13 -7 -17
-16z"/>
<path d="M1556 934 c-7 -19 1 -34 19 -34 18 0 28 32 13 42 -19 11 -25 10 -32
-8z"/>
<path d="M1723 934 c-8 -21 13 -42 28 -27 13 13 5 43 -11 43 -6 0 -13 -7 -17
-16z"/>
<path d="M227 884 c-16 -16 -6 -35 16 -32 12 2 22 10 22 18 0 16 -26 25 -38
14z"/>
<path d="M335 880 c-4 -7 -3 -16 3 -22 14 -14 45 -2 40 15 -6 16 -34 21 -43 7z"/>
<path d="M390 870 c0 -13 7 -20 20 -20 13 0 20 7 20 20 0 13 -7 20 -20 20 -13
0 -20 -7 -20 -20z"/>
<path d="M500 870 c0 -13 7 -20 20 -20 13 0 20 7 20 20 0 13 -7 20 -20 20 -13
0 -20 -7 -20 -20z"/>
<path d="M555 880 c-4 -7 -3 -16 3 -22 14 -14 45 -2 40 15 -6 16 -34 21 -43 7z"/>
<path d="M617 883 c-14 -13 -6 -33 13 -33 13 0 20 7 20 20 0 19 -20 27 -33 13z"/>
<path d="M727 883 c-14 -13 -6 -33 12 -33 19 0 35 23 24 34 -8 8 -28 8 -36 -1z"/>
<path d="M777 876 c-7 -18 1 -26 25 -26 13 0 18 6 16 17 -4 22 -34 29 -41 9z"/>
<path d="M890 871 c0 -15 6 -21 21 -21 14 0 19 5 17 17 -5 26 -38 29 -38 4z"/>
<path d="M945 880 c-4 -7 -3 -16 3 -22 14 -14 45 -2 40 15 -6 16 -34 21 -43 7z"/>
<path d="M1000 870 c0 -13 7 -20 20 -20 13 0 20 7 20 20 0 13 -7 20 -20 20
-13 0 -20 -7 -20 -20z"/>
<path d="M1165 880 c-4 -7 -3 -16 3 -22 14 -14 45 -2 40 15 -6 16 -34 21 -43
7z"/>
<path d="M1337 884 c-16 -16 -6 -35 16 -32 12 2 22 10 22 18 0 16 -26 25 -38
14z"/>
<path d="M1500 870 c0 -13 7 -20 20 -20 13 0 20 7 20 20 0 13 -7 20 -20 20
-13 0 -20 -7 -20 -20z"/>
<path d="M1610 870 c0 -13 7 -20 20 -20 13 0 20 7 20 20 0 13 -7 20 -20 20
-13 0 -20 -7 -20 -20z"/>
<path d="M1665 880 c-4 -7 -3 -16 3 -22 14 -14 45 -2 40 15 -6 16 -34 21 -43
7z"/>
<path d="M224 825 c-7 -18 3 -35 21 -35 18 0 26 25 12 39 -15 15 -27 14 -33
-4z"/>
<path d="M283 824 c-7 -19 11 -39 26 -30 16 10 13 33 -4 40 -9 3 -18 -1 -22
-10z"/>
<path d="M393 824 c-8 -21 13 -42 28 -27 13 13 5 43 -11 43 -6 0 -13 -7 -17
-16z"/>
<path d="M449 824 c-9 -11 -9 -18 -1 -26 14 -14 42 -3 42 16 0 20 -27 27 -41
10z"/>
<path d="M614 826 c-7 -19 3 -36 22 -36 10 0 14 8 12 22 -4 26 -26 36 -34 14z"/>
<path d="M724 825 c-7 -18 3 -35 21 -35 18 0 26 25 12 39 -15 15 -27 14 -33
-4z"/>
<path d="M783 824 c-7 -19 11 -39 26 -30 16 10 13 33 -4 40 -9 3 -18 -1 -22
-10z"/>
<path d="M1003 824 c-8 -21 13 -42 28 -27 13 13 5 43 -11 43 -6 0 -13 -7 -17
-16z"/>
<path d="M1281 826 c-8 -10 -7 -17 3 -26 17 -13 36 -6 36 15 0 19 -27 26 -39
11z"/>
<path d="M1334 825 c-7 -18 3 -35 21 -35 18 0 26 25 12 39 -15 15 -27 14 -33
-4z"/>
<path d="M1446 824 c-7 -19 1 -34 19 -34 18 0 26 25 12 39 -15 15 -24 14 -31
-5z"/>
<path d="M1503 824 c-8 -21 13 -42 28 -27 13 13 5 43 -11 43 -6 0 -13 -7 -17
-16z"/>
<path d="M1556 824 c-7 -19 1 -34 19 -34 18 0 28 32 13 42 -19 11 -25 10 -32
-8z"/>
<path d="M1669 824 c-9 -11 -9 -18 -1 -26 14 -14 42 -3 42 16 0 20 -27 27 -41
10z"/>
<path d="M1779 824 c-9 -11 -9 -18 -1 -26 14 -14 42 -3 42 16 0 20 -27 27 -41
10z"/>
<path d="M223 763 c-4 -9 -1 -19 5 -21 9 -3 9 -9 1 -23 -11 -22 -5 -39 16 -39
18 0 26 25 13 38 -8 8 -8 15 1 26 7 8 10 20 6 26 -10 16 -35 12 -42 -7z"/>
<path d="M333 764 c-8 -22 18 -37 36 -20 7 8 10 19 7 25 -10 16 -36 13 -43 -5z"/>
<path d="M503 764 c-7 -18 17 -38 31 -24 11 11 1 40 -14 40 -6 0 -13 -7 -17
-16z"/>
<path d="M556 765 c-3 -9 1 -18 10 -22 19 -7 39 11 30 26 -10 16 -33 13 -40
-4z"/>
<path d="M776 765 c-6 -18 29 -41 39 -25 10 16 -2 40 -19 40 -7 0 -16 -7 -20
-15z"/>
<path d="M833 764 c-3 -9 0 -20 7 -24 11 -7 11 -11 1 -24 -14 -17 -7 -36 14
-36 18 0 26 25 13 38 -8 8 -8 15 1 26 7 8 10 20 6 26 -10 15 -35 12 -42 -6z"/>
<path d="M890 761 c0 -21 26 -36 36 -20 9 15 -3 39 -21 39 -8 0 -15 -9 -15
-19z"/>
<path d="M1000 761 c0 -21 26 -36 36 -20 9 15 -3 39 -21 39 -8 0 -15 -9 -15
-19z"/>
<path d="M1055 770 c-4 -7 -3 -16 3 -22 14 -14 45 -2 40 15 -6 16 -34 21 -43
7z"/>
<path d="M1166 765 c-3 -9 1 -18 10 -22 19 -7 39 11 30 26 -10 16 -33 13 -40
-4z"/>
<path d="M1386 765 c-6 -18 29 -41 39 -25 10 16 -2 40 -19 40 -7 0 -16 -7 -20
-15z"/>
<path d="M1500 761 c0 -21 26 -36 36 -20 9 15 -3 39 -21 39 -8 0 -15 -9 -15
-19z"/>
<path d="M1665 770 c-4 -7 -3 -16 3 -22 14 -14 45 -2 40 15 -6 16 -34 21 -43
7z"/>
<path d="M393 714 c-7 -19 11 -39 26 -30 16 10 13 33 -4 40 -9 3 -18 -1 -22
-10z"/>
<path d="M669 714 c-9 -11 -9 -18 -1 -26 14 -14 42 -3 42 16 0 20 -27 27 -41
10z"/>
<path d="M786 723 c-3 -4 -6 -15 -6 -25 0 -24 33 -21 38 3 3 17 -21 33 -32 22z"/>
<path d="M1059 714 c-9 -11 -9 -18 -1 -26 14 -14 42 -3 42 16 0 20 -27 27 -41
10z"/>
<path d="M1114 715 c-3 -8 -3 -19 1 -25 11 -17 35 -11 35 9 0 23 -29 36 -36
16z"/>
<path d="M1334 715 c-7 -18 3 -35 21 -35 18 0 26 25 12 39 -15 15 -27 14 -33
-4z"/>
<path d="M1393 714 c-7 -19 11 -39 26 -30 16 10 13 33 -4 40 -9 3 -18 -1 -22
-10z"/>
<path d="M1450 716 c-13 -17 -6 -36 15 -36 19 0 26 27 11 39 -10 8 -17 7 -26
-3z"/>
<path d="M1503 714 c-7 -19 11 -39 26 -30 16 10 13 33 -4 40 -9 3 -18 -1 -22
-10z"/>
<path d="M1561 716 c-14 -17 -7 -36 14 -36 22 0 29 20 13 36 -13 13 -16 13
-27 0z"/>
<path d="M1724 715 c-3 -8 -3 -19 1 -25 11 -17 35 -11 35 9 0 23 -29 36 -36
16z"/>
<path d="M223 654 c-8 -22 18 -37 36 -20 7 8 10 19 7 25 -10 16 -36 13 -43 -5z"/>
<path d="M393 654 c-8 -21 13 -42 28 -27 13 13 5 43 -11 43 -6 0 -13 -7 -17
-16z"/>
<path d="M557 656 c-3 -8 1 -20 9 -27 13 -10 17 -10 25 2 5 8 7 19 6 24 -6 16
-34 17 -40 1z"/>
<path d="M667 656 c-3 -7 -1 -18 5 -24 8 -8 7 -16 -2 -27 -16 -19 0 -41 24
-32 18 7 22 37 5 37 -8 0 -8 5 1 15 15 18 6 45 -14 45 -7 0 -16 -6 -19 -14z"/>
<path d="M833 654 c-8 -22 18 -37 36 -20 7 8 10 19 7 25 -10 16 -36 13 -43 -5z"/>
<path d="M1057 656 c-9 -22 18 -40 33 -22 6 9 9 20 5 26 -9 15 -32 12 -38 -4z"/>
<path d="M1167 656 c-3 -8 1 -20 9 -27 13 -10 17 -10 25 2 5 8 7 19 6 24 -6
16 -34 17 -40 1z"/>
<path d="M1333 654 c-8 -20 17 -36 34 -22 9 7 17 7 28 -2 19 -16 41 1 32 24
-7 19 -37 22 -37 4 0 -9 -3 -9 -12 0 -17 17 -37 15 -45 -4z"/>
<path d="M1443 654 c-8 -22 18 -37 36 -20 7 8 10 19 7 25 -10 16 -36 13 -43
-5z"/>
<path d="M1502 648 c2 -12 10 -23 18 -23 22 0 19 39 -3 43 -15 3 -18 -1 -15
-20z"/>
<path d="M1553 654 c-8 -22 18 -37 36 -20 7 8 10 19 7 25 -10 16 -36 13 -43
-5z"/>
<path d="M1667 656 c-9 -22 18 -40 33 -22 6 9 9 20 5 26 -9 15 -32 12 -38 -4z"/>
<path d="M1723 654 c-7 -18 17 -38 31 -24 11 11 1 40 -14 40 -6 0 -13 -7 -17
-16z"/>
<path d="M1777 656 c-8 -20 20 -43 35 -28 14 14 3 42 -16 42 -7 0 -16 -6 -19
-14z"/>
<path d="M896 613 c-3 -4 -6 -15 -6 -25 0 -24 33 -21 38 3 3 17 -21 33 -32 22z"/>
<path d="M1614 605 c-3 -8 -3 -19 1 -25 11 -17 35 -11 35 9 0 23 -29 36 -36
16z"/>
<path d="M725 600 c-8 -13 3 -30 20 -30 14 0 27 24 18 34 -10 9 -31 7 -38 -4z"/>
<path d="M945 600 c-4 -7 -3 -16 3 -22 14 -14 45 -2 40 15 -6 16 -34 21 -43 7z"/>
<path d="M1112 593 c5 -26 38 -29 38 -4 0 15 -6 21 -21 21 -14 0 -19 -5 -17
-17z"/>
<path d="M1164 599 c-9 -15 12 -33 30 -26 9 4 16 13 16 22 0 17 -35 21 -46 4z"/>
<path d="M1220 595 c0 -21 30 -31 40 -14 11 17 3 29 -21 29 -10 0 -19 -7 -19
-15z"/>
<path d="M1335 600 c-8 -13 3 -30 20 -30 14 0 27 24 18 34 -10 9 -31 7 -38 -4z"/>
<path d="M1555 600 c-4 -7 -3 -16 3 -22 14 -14 45 -2 40 15 -6 16 -34 21 -43
7z"/>
<path d="M1664 599 c-9 -15 12 -33 30 -26 9 4 16 13 16 22 0 17 -35 21 -46 4z"/>
<path d="M1722 593 c5 -26 38 -29 38 -4 0 15 -6 21 -21 21 -14 0 -19 -5 -17
-17z"/>
<path d="M1774 599 c-9 -15 12 -33 30 -26 9 4 16 13 16 22 0 17 -35 21 -46 4z"/>
<path d="M246 529 c-25 -30 -26 -35 -26 -164 l0 -133 31 -26 c30 -25 35 -26
164 -26 l133 0 26 31 c25 30 26 35 26 164 l0 133 -31 26 c-30 25 -35 26 -164
26 l-133 0 -26 -31z m283 -45 c18 -23 21 -41 21 -120 0 -88 -1 -94 -26 -113
-23 -18 -41 -21 -120 -21 -88 0 -94 1 -113 26 -18 23 -21 41 -21 120 0 88 1
94 26 113 23 18 41 21 120 21 88 0 94 -1 113 -26z"/>
<path d="M342 438 c-7 -7 -12 -37 -12 -68 0 -31 5 -61 12 -68 16 -16 120 -16
136 0 7 7 12 37 12 68 0 31 -5 61 -12 68 -7 7 -37 12 -68 12 -31 0 -61 -5 -68
-12z"/>
<path d="M667 546 c-8 -20 20 -43 35 -28 14 14 3 42 -16 42 -7 0 -16 -6 -19
-14z"/>
<path d="M943 544 c-5 -14 11 -33 28 -34 10 0 20 31 13 41 -9 15 -34 10 -41
-7z"/>
<path d="M1003 544 c-8 -21 13 -42 28 -27 13 13 5 43 -11 43 -6 0 -13 -7 -17
-16z"/>
<path d="M1056 543 c-6 -15 8 -32 25 -33 10 0 20 31 13 41 -9 15 -31 10 -38
-8z"/>
<path d="M1113 544 c-8 -21 13 -42 28 -27 13 13 5 43 -11 43 -6 0 -13 -7 -17
-16z"/>
<path d="M1167 546 c-8 -20 20 -43 35 -28 14 14 3 42 -16 42 -7 0 -16 -6 -19
-14z"/>
<path d="M1277 546 c-8 -20 20 -43 35 -28 14 14 3 42 -16 42 -7 0 -16 -6 -19
-14z"/>
<path d="M1333 544 c-9 -23 19 -37 37 -18 13 13 13 16 0 24 -21 14 -30 12 -37
-6z"/>
<path d="M1443 544 c-8 -22 18 -37 36 -20 7 8 10 19 7 25 -10 16 -36 13 -43
-5z"/>
<path d="M1556 543 c-6 -15 8 -32 25 -33 10 0 20 31 13 41 -9 15 -31 10 -38
-8z"/>
<path d="M1613 544 c-8 -21 13 -42 28 -27 13 13 5 43 -11 43 -6 0 -13 -7 -17
-16z"/>
<path d="M1667 546 c-3 -8 1 -20 9 -27 13 -10 17 -10 25 2 5 8 7 19 6 24 -6
16 -34 17 -40 1z"/>
<path d="M776 485 c-6 -17 17 -31 34 -20 5 3 10 13 10 21 0 19 -36 18 -44 -1z"/>
<path d="M890 480 c0 -13 7 -20 20 -20 13 0 20 7 20 20 0 13 -7 20 -20 20 -13
0 -20 -7 -20 -20z"/>
<path d="M945 490 c-4 -7 -3 -16 3 -22 14 -14 45 -2 40 15 -6 16 -34 21 -43 7z"/>
<path d="M1055 490 c-4 -7 -3 -16 3 -22 14 -14 45 -2 40 15 -6 16 -34 21 -43
7z"/>
<path d="M1225 490 c-8 -13 3 -30 20 -30 14 0 27 24 18 34 -10 9 -31 7 -38 -4z"/>
<path d="M1276 485 c-6 -17 17 -31 34 -20 5 3 10 13 10 21 0 19 -36 18 -44 -1z"/>
<path d="M1335 490 c-8 -13 3 -30 20 -30 14 0 27 24 18 34 -10 9 -31 7 -38 -4z"/>
<path d="M1555 490 c-4 -7 -3 -16 3 -22 14 -14 45 -2 40 15 -6 16 -34 21 -43
7z"/>
<path d="M667 436 c-8 -20 20 -43 35 -28 14 14 3 42 -16 42 -7 0 -16 -6 -19
-14z"/>
<path d="M893 434 c-8 -21 13 -42 28 -27 13 13 5 43 -11 43 -6 0 -13 -7 -17
-16z"/>
<path d="M1003 434 c-8 -21 13 -42 28 -27 13 13 5 43 -11 43 -6 0 -13 -7 -17
-16z"/>
<path d="M1056 433 c-6 -15 8 -32 27 -33 15 0 20 32 6 41 -20 13 -26 11 -33
-8z"/>
<path d="M1167 436 c-8 -20 20 -43 35 -28 14 14 3 42 -16 42 -7 0 -16 -6 -19
-14z"/>
<path d="M1333 434 c-9 -23 13 -40 32 -24 12 10 13 16 4 26 -15 18 -28 18 -36
-2z"/>
<path d="M1393 434 c-8 -21 13 -42 28 -27 13 13 5 43 -11 43 -6 0 -13 -7 -17
-16z"/>
<path d="M1443 434 c-5 -14 11 -33 28 -34 14 0 19 34 7 42 -19 12 -28 10 -35
-8z"/>
<path d="M1503 434 c-8 -21 13 -42 28 -27 13 13 5 43 -11 43 -6 0 -13 -7 -17
-16z"/>
<path d="M1556 433 c-6 -15 8 -32 25 -33 14 0 19 34 7 42 -19 11 -25 10 -32
-9z"/>
<path d="M1666 433 c-6 -15 8 -32 27 -33 15 0 20 32 6 41 -20 13 -26 11 -33
-8z"/>
<path d="M1723 434 c-8 -21 13 -42 28 -27 13 13 5 43 -11 43 -6 0 -13 -7 -17
-16z"/>
<path d="M1777 436 c-8 -20 20 -43 35 -28 14 14 3 42 -16 42 -7 0 -16 -6 -19
-14z"/>
<path d="M666 375 c-3 -9 1 -18 10 -22 19 -7 39 11 30 26 -10 16 -33 13 -40
-4z"/>
<path d="M1110 370 c0 -13 7 -20 20 -20 13 0 20 7 20 20 0 13 -7 20 -20 20
-13 0 -20 -7 -20 -20z"/>
<path d="M1165 380 c-4 -7 -3 -16 3 -22 14 -14 45 -2 40 15 -6 16 -34 21 -43
7z"/>
<path d="M1227 383 c-14 -13 -6 -33 12 -33 19 0 35 23 24 34 -8 8 -28 8 -36
-1z"/>
<path d="M1276 375 c-3 -9 1 -18 10 -22 19 -7 39 11 30 26 -10 16 -33 13 -40
-4z"/>
<path d="M1500 370 c0 -13 7 -20 20 -20 13 0 20 7 20 20 0 13 -7 20 -20 20
-13 0 -20 -7 -20 -20z"/>
<path d="M1610 370 c0 -13 7 -20 20 -20 13 0 20 7 20 20 0 13 -7 20 -20 20
-13 0 -20 -7 -20 -20z"/>
<path d="M1665 380 c-4 -7 -3 -16 3 -22 14 -14 45 -2 40 15 -6 16 -34 21 -43
7z"/>
<path d="M1727 383 c-14 -13 -6 -33 13 -33 13 0 20 7 20 20 0 19 -20 27 -33
13z"/>
<path d="M1775 380 c-4 -7 -3 -16 3 -22 14 -14 45 -2 40 15 -6 16 -34 21 -43
7z"/>
<path d="M671 326 c-8 -10 -7 -17 3 -26 17 -13 36 -6 36 15 0 19 -27 26 -39
11z"/>
<path d="M724 325 c-7 -18 3 -35 21 -35 18 0 26 25 12 39 -15 15 -27 14 -33
-4z"/>
<path d="M783 324 c-8 -21 13 -42 28 -27 13 13 5 43 -11 43 -6 0 -13 -7 -17
-16z"/>
<path d="M834 325 c-7 -18 3 -35 21 -35 18 0 26 25 12 39 -15 15 -27 14 -33
-4z"/>
<path d="M893 324 c-8 -21 13 -42 28 -27 13 13 5 43 -11 43 -6 0 -13 -7 -17
-16z"/>
<path d="M1056 324 c-8 -20 1 -34 20 -34 20 0 30 30 13 41 -20 12 -26 11 -33
-7z"/>
<path d="M1113 324 c-8 -21 13 -42 28 -27 13 13 5 43 -11 43 -6 0 -13 -7 -17
-16z"/>
<path d="M1393 324 c-8 -21 13 -42 28 -27 13 13 5 43 -11 43 -6 0 -13 -7 -17
-16z"/>
<path d="M1444 325 c-7 -18 3 -35 21 -35 18 0 26 25 12 39 -15 15 -27 14 -33
-4z"/>
<path d="M1503 324 c-8 -21 13 -42 28 -27 13 13 5 43 -11 43 -6 0 -13 -7 -17
-16z"/>
<path d="M1556 324 c-7 -19 1 -34 19 -34 18 0 28 32 13 42 -19 11 -25 10 -32
-8z"/>
<path d="M1613 324 c-8 -21 13 -42 28 -27 13 13 5 43 -11 43 -6 0 -13 -7 -17
-16z"/>
<path d="M1666 324 c-8 -20 1 -34 20 -34 20 0 30 30 13 41 -20 12 -26 11 -33
-7z"/>
<path d="M1723 324 c-8 -21 13 -42 28 -27 13 13 5 43 -11 43 -6 0 -13 -7 -17
-16z"/>
<path d="M666 265 c-3 -9 1 -18 10 -22 19 -7 39 11 30 26 -10 16 -33 13 -40
-4z"/>
<path d="M727 273 c-14 -13 -6 -33 12 -33 19 0 35 23 24 34 -8 8 -28 8 -36 -1z"/>
<path d="M837 274 c-16 -16 -6 -35 16 -32 12 2 22 10 22 18 0 16 -26 25 -38
14z"/>
<path d="M1000 260 c0 -13 7 -20 20 -20 13 0 20 7 20 20 0 13 -7 20 -20 20
-13 0 -20 -7 -20 -20z"/>
<path d="M1117 273 c-14 -13 -6 -33 13 -33 13 0 20 7 20 20 0 19 -20 27 -33
13z"/>
<path d="M1227 273 c-14 -13 -6 -33 12 -33 19 0 35 23 24 34 -8 8 -28 8 -36
-1z"/>
<path d="M1337 274 c-16 -16 -6 -35 16 -32 12 2 22 10 22 18 0 16 -26 25 -38
14z"/>
<path d="M1500 261 c0 -15 6 -21 21 -21 25 0 22 33 -4 38 -12 2 -17 -3 -17
-17z"/>
<path d="M1610 260 c0 -13 7 -20 20 -20 13 0 20 7 20 20 0 13 -7 20 -20 20
-13 0 -20 -7 -20 -20z"/>
<path d="M1727 273 c-14 -13 -6 -33 13 -33 13 0 20 7 20 20 0 19 -20 27 -33
13z"/>
<path d="M669 214 c-9 -11 -9 -18 -1 -26 14 -14 42 -3 42 16 0 20 -27 27 -41
10z"/>
<path d="M783 214 c-7 -19 11 -39 26 -30 16 10 13 33 -4 40 -9 3 -18 -1 -22
-10z"/>
<path d="M834 215 c-7 -18 3 -35 21 -35 18 0 26 25 12 39 -15 15 -27 14 -33
-4z"/>
<path d="M1169 214 c-9 -11 -9 -18 -1 -26 14 -14 42 -3 42 16 0 20 -27 27 -41
10z"/>
<path d="M1279 214 c-10 -13 -10 -17 2 -25 18 -11 33 -6 37 13 4 22 -24 30
-39 12z"/>
<path d="M1503 214 c-8 -21 13 -42 28 -27 13 13 5 43 -11 43 -6 0 -13 -7 -17
-16z"/>
<path d="M1560 215 c-14 -16 -5 -35 16 -35 8 0 14 2 14 4 0 2 3 11 6 19 7 20
-22 29 -36 12z"/>
<path d="M1613 214 c-8 -21 13 -42 28 -27 13 13 5 43 -11 43 -6 0 -13 -7 -17
-16z"/>
<path d="M1669 214 c-9 -11 -9 -18 -1 -26 14 -14 42 -3 42 16 0 20 -27 27 -41
10z"/>
</g>
</svg>
